<mxfile host="app.diagrams.net" modified="2024-03-17T18:18:46.678Z" agent="Mozilla/5.0 (Windows NT 10.0; Win64; x64) AppleWebKit/537.36 (KHTML, like Gecko) Chrome/122.0.0.0 Safari/537.36" etag="VmUvWBT5PYGBKkP69f9w" version="24.0.7" type="github">
  <diagram name="第 1 页" id="Zz-yE3sN_qA-QzTztnrS">
    <mxGraphModel dx="676" dy="372" grid="0" gridSize="10" guides="1" tooltips="1" connect="1" arrows="1" fold="1" page="1" pageScale="1" pageWidth="827" pageHeight="1169" background="#ffffff" math="1" shadow="0">
      <root>
        <mxCell id="0" />
        <mxCell id="1" parent="0" />
        <mxCell id="cLLFFFdeCCLUWjYebq43-33" value="" style="rounded=1;whiteSpace=wrap;html=1;fillColor=#fff2cc;strokeColor=#d6b656;fillStyle=solid;dashed=1;" parent="1" vertex="1">
          <mxGeometry x="146" y="172" width="226" height="147" as="geometry" />
        </mxCell>
        <mxCell id="cLLFFFdeCCLUWjYebq43-18" style="edgeStyle=orthogonalEdgeStyle;rounded=0;orthogonalLoop=1;jettySize=auto;html=1;entryX=0;entryY=0.5;entryDx=0;entryDy=0;strokeColor=default;align=center;verticalAlign=middle;fontFamily=Helvetica;fontSize=11;fontColor=default;labelBackgroundColor=default;endArrow=blockThin;endFill=1;endSize=3;" parent="1" source="cLLFFFdeCCLUWjYebq43-7" target="cLLFFFdeCCLUWjYebq43-13" edge="1">
          <mxGeometry relative="1" as="geometry" />
        </mxCell>
        <mxCell id="cLLFFFdeCCLUWjYebq43-7" value="&lt;font style=&quot;font-size: 11px;&quot;&gt;C&lt;/font&gt;" style="ellipse;whiteSpace=wrap;html=1;aspect=fixed;fontFamily=Helvetica;fontSize=11;fontColor=default;labelBackgroundColor=default;" parent="1" vertex="1">
          <mxGeometry x="150.5" y="245.49" width="20" height="20" as="geometry" />
        </mxCell>
        <mxCell id="cLLFFFdeCCLUWjYebq43-10" style="edgeStyle=orthogonalEdgeStyle;rounded=0;orthogonalLoop=1;jettySize=auto;html=1;entryX=0.5;entryY=0;entryDx=0;entryDy=0;strokeColor=default;align=center;verticalAlign=middle;fontFamily=Helvetica;fontSize=11;fontColor=default;labelBackgroundColor=default;endArrow=blockThin;endFill=1;endSize=3;" parent="1" target="cLLFFFdeCCLUWjYebq43-7" edge="1">
          <mxGeometry relative="1" as="geometry">
            <mxPoint x="139" y="225.49" as="sourcePoint" />
          </mxGeometry>
        </mxCell>
        <mxCell id="cLLFFFdeCCLUWjYebq43-11" style="edgeStyle=orthogonalEdgeStyle;rounded=0;orthogonalLoop=1;jettySize=auto;html=1;entryX=0.5;entryY=1;entryDx=0;entryDy=0;strokeColor=default;align=center;verticalAlign=middle;fontFamily=Helvetica;fontSize=11;fontColor=default;labelBackgroundColor=default;endArrow=blockThin;endFill=1;endSize=3;" parent="1" target="cLLFFFdeCCLUWjYebq43-7" edge="1">
          <mxGeometry relative="1" as="geometry">
            <mxPoint x="139" y="285.49" as="sourcePoint" />
          </mxGeometry>
        </mxCell>
        <mxCell id="cLLFFFdeCCLUWjYebq43-13" value="" style="rounded=1;whiteSpace=wrap;html=1;fillColor=#eeeeee;strokeColor=#36393d;" parent="1" vertex="1">
          <mxGeometry x="207" y="208.87" width="20" height="93.25" as="geometry" />
        </mxCell>
        <mxCell id="cLLFFFdeCCLUWjYebq43-14" value="" style="rounded=1;whiteSpace=wrap;html=1;fillColor=#eeeeee;strokeColor=#36393d;" parent="1" vertex="1">
          <mxGeometry x="227" y="208.87" width="20" height="93.25" as="geometry" />
        </mxCell>
        <mxCell id="cLLFFFdeCCLUWjYebq43-15" value="" style="rounded=1;whiteSpace=wrap;html=1;fillColor=#ffff88;strokeColor=#36393d;" parent="1" vertex="1">
          <mxGeometry x="247" y="208.87" width="20" height="93.25" as="geometry" />
        </mxCell>
        <mxCell id="cLLFFFdeCCLUWjYebq43-19" style="edgeStyle=orthogonalEdgeStyle;rounded=0;orthogonalLoop=1;jettySize=auto;html=1;strokeColor=default;align=center;verticalAlign=middle;fontFamily=Helvetica;fontSize=11;fontColor=default;labelBackgroundColor=default;endArrow=blockThin;endFill=1;endSize=3;" parent="1" source="cLLFFFdeCCLUWjYebq43-35" edge="1">
          <mxGeometry relative="1" as="geometry">
            <mxPoint x="315.75" y="256.12" as="targetPoint" />
            <Array as="points">
              <mxPoint x="305.75" y="256.12" />
            </Array>
          </mxGeometry>
        </mxCell>
        <mxCell id="cLLFFFdeCCLUWjYebq43-17" value="" style="rounded=1;whiteSpace=wrap;html=1;fillColor=#eeeeee;strokeColor=#36393d;" parent="1" vertex="1">
          <mxGeometry x="267.5" y="208.87" width="20" height="93.25" as="geometry" />
        </mxCell>
        <mxCell id="cLLFFFdeCCLUWjYebq43-20" value="" style="endArrow=classic;html=1;rounded=0;strokeColor=default;align=center;verticalAlign=middle;fontFamily=Helvetica;fontSize=11;fontColor=default;labelBackgroundColor=default;edgeStyle=orthogonalEdgeStyle;endSize=3;entryX=0.5;entryY=0;entryDx=0;entryDy=0;exitX=0.934;exitY=0.546;exitDx=0;exitDy=0;exitPerimeter=0;" parent="1" source="cLLFFFdeCCLUWjYebq43-26" target="cLLFFFdeCCLUWjYebq43-35" edge="1">
          <mxGeometry width="50" height="50" relative="1" as="geometry">
            <mxPoint x="182" y="256.12" as="sourcePoint" />
            <mxPoint x="302" y="256.12" as="targetPoint" />
            <Array as="points">
              <mxPoint x="313.5" y="186.12" />
            </Array>
          </mxGeometry>
        </mxCell>
        <mxCell id="cLLFFFdeCCLUWjYebq43-22" value="" style="endArrow=classic;html=1;rounded=0;strokeColor=default;align=center;verticalAlign=middle;fontFamily=Helvetica;fontSize=11;fontColor=default;labelBackgroundColor=default;edgeStyle=orthogonalEdgeStyle;endSize=3;" parent="1" target="cLLFFFdeCCLUWjYebq43-21" edge="1">
          <mxGeometry width="50" height="50" relative="1" as="geometry">
            <mxPoint x="182" y="256.12" as="sourcePoint" />
            <mxPoint x="302" y="256.12" as="targetPoint" />
            <Array as="points">
              <mxPoint x="182" y="186" />
            </Array>
          </mxGeometry>
        </mxCell>
        <mxCell id="cLLFFFdeCCLUWjYebq43-21" value="" style="rounded=1;whiteSpace=wrap;html=1;fillColor=#eeeeee;strokeColor=#36393d;" parent="1" vertex="1">
          <mxGeometry x="222.5" y="176.12" width="48" height="20" as="geometry" />
        </mxCell>
        <mxCell id="cLLFFFdeCCLUWjYebq43-23" value="&lt;font face=&quot;Times New Roman&quot;&gt;Conv&lt;/font&gt; 1`\times`1" style="text;strokeColor=none;align=center;fillColor=none;html=1;verticalAlign=middle;whiteSpace=wrap;rounded=0;fontFamily=Helvetica;fontSize=11;fontColor=default;labelBackgroundColor=#eeeeee;textDirection=ltr;rotation=-90;" parent="1" vertex="1">
          <mxGeometry x="190" y="246.12" width="54" height="22" as="geometry" />
        </mxCell>
        <mxCell id="cLLFFFdeCCLUWjYebq43-24" value="&lt;font face=&quot;Times New Roman&quot;&gt;DW Conv&lt;/font&gt; 1`\times`1" style="text;strokeColor=none;align=center;fillColor=none;html=1;verticalAlign=middle;whiteSpace=wrap;rounded=0;fontFamily=Helvetica;fontSize=11;fontColor=default;labelBackgroundColor=#eeeeee;textDirection=ltr;rotation=-90;" parent="1" vertex="1">
          <mxGeometry x="200.25" y="245.12" width="73.5" height="22" as="geometry" />
        </mxCell>
        <mxCell id="cLLFFFdeCCLUWjYebq43-25" value="&lt;font face=&quot;Times New Roman&quot;&gt;Conv&lt;/font&gt; 1`\times`1" style="text;strokeColor=none;align=center;fillColor=none;html=1;verticalAlign=middle;whiteSpace=wrap;rounded=0;fontFamily=Helvetica;fontSize=11;fontColor=default;labelBackgroundColor=#eeeeee;textDirection=ltr;rotation=-90;" parent="1" vertex="1">
          <mxGeometry x="249.25" y="246.12" width="54" height="22" as="geometry" />
        </mxCell>
        <mxCell id="cLLFFFdeCCLUWjYebq43-26" value="&lt;font style=&quot;font-size: 10px;&quot;&gt;&lt;font face=&quot;Times New Roman&quot;&gt;Conv&lt;/font&gt; 1`\times`1&lt;/font&gt;" style="text;strokeColor=none;align=center;fillColor=none;html=1;verticalAlign=middle;whiteSpace=wrap;rounded=0;fontFamily=Helvetica;fontSize=11;fontColor=default;labelBackgroundColor=#eeeeee;textDirection=ltr;rotation=0;" parent="1" vertex="1">
          <mxGeometry x="218.87" y="174.12" width="55.25" height="22" as="geometry" />
        </mxCell>
        <mxCell id="cLLFFFdeCCLUWjYebq43-32" value="&lt;font face=&quot;Times New Roman&quot;&gt;RELU&lt;/font&gt;" style="text;strokeColor=none;align=center;fillColor=none;html=1;verticalAlign=middle;whiteSpace=wrap;rounded=0;fontFamily=Helvetica;fontSize=11;fontColor=default;labelBackgroundColor=#ffff88;textDirection=ltr;rotation=-90;" parent="1" vertex="1">
          <mxGeometry x="230" y="245.12" width="54" height="22" as="geometry" />
        </mxCell>
        <mxCell id="cLLFFFdeCCLUWjYebq43-37" value="" style="edgeStyle=orthogonalEdgeStyle;rounded=0;orthogonalLoop=1;jettySize=auto;html=1;strokeColor=default;align=center;verticalAlign=middle;fontFamily=Helvetica;fontSize=11;fontColor=default;labelBackgroundColor=default;endArrow=blockThin;endFill=1;endSize=3;" parent="1" source="cLLFFFdeCCLUWjYebq43-17" target="cLLFFFdeCCLUWjYebq43-35" edge="1">
          <mxGeometry relative="1" as="geometry">
            <mxPoint x="322" y="256.12" as="targetPoint" />
            <mxPoint x="287.5" y="256.12" as="sourcePoint" />
            <Array as="points" />
          </mxGeometry>
        </mxCell>
        <mxCell id="cLLFFFdeCCLUWjYebq43-41" style="edgeStyle=orthogonalEdgeStyle;rounded=0;orthogonalLoop=1;jettySize=auto;html=1;entryX=0;entryY=0.5;entryDx=0;entryDy=0;strokeColor=default;align=center;verticalAlign=middle;fontFamily=Helvetica;fontSize=11;fontColor=default;labelBackgroundColor=default;endArrow=blockThin;endFill=1;endSize=3;" parent="1" source="cLLFFFdeCCLUWjYebq43-35" target="cLLFFFdeCCLUWjYebq43-40" edge="1">
          <mxGeometry relative="1" as="geometry" />
        </mxCell>
        <mxCell id="cLLFFFdeCCLUWjYebq43-35" value="&lt;font style=&quot;font-size: 14px;&quot;&gt;+&lt;/font&gt;" style="ellipse;whiteSpace=wrap;html=1;aspect=fixed;fontFamily=Helvetica;fontSize=11;fontColor=default;labelBackgroundColor=default;" parent="1" vertex="1">
          <mxGeometry x="303.25" y="246.37" width="20" height="20" as="geometry" />
        </mxCell>
        <mxCell id="cLLFFFdeCCLUWjYebq43-44" style="edgeStyle=orthogonalEdgeStyle;rounded=0;orthogonalLoop=1;jettySize=auto;html=1;strokeColor=default;align=center;verticalAlign=middle;fontFamily=Helvetica;fontSize=11;fontColor=default;labelBackgroundColor=default;endArrow=blockThin;endFill=1;endSize=3;" parent="1" source="cLLFFFdeCCLUWjYebq43-40" edge="1">
          <mxGeometry relative="1" as="geometry">
            <mxPoint x="386.25" y="256.12" as="targetPoint" />
            <Array as="points">
              <mxPoint x="386.25" y="256.12" />
            </Array>
          </mxGeometry>
        </mxCell>
        <mxCell id="cLLFFFdeCCLUWjYebq43-40" value="&lt;font face=&quot;Times New Roman&quot;&gt;Norm&lt;/font&gt;" style="rounded=1;whiteSpace=wrap;html=1;fontFamily=Helvetica;fontSize=11;fontColor=default;labelBackgroundColor=default;" parent="1" vertex="1">
          <mxGeometry x="336.5" y="246.87" width="30" height="19" as="geometry" />
        </mxCell>
      </root>
    </mxGraphModel>
  </diagram>
</mxfile>
